<svg width="24" height="24" viewBox="0 0 24 24" fill="none" xmlns="http://www.w3.org/2000/svg">
<path d="M20.0065 3H3.99352C3.44473 3 3 3.44473 3 3.99352V20.0067C3 20.5551 3.44455 21 3.99352 21H12.6152V14.0391H10.2773V11.3145H12.6152V9.30932C12.6152 6.98443 14.035 5.71846 16.1091 5.71846C17.1024 5.71846 17.9563 5.79246 18.2051 5.82551V8.25516L16.7747 8.25586C15.6462 8.25586 15.4277 8.79217 15.4277 9.57914V11.3145H18.1258L17.7744 14.0391H15.4277V21H20.0065C20.5551 21 21 20.5553 21 20.0065V3.99352C21 3.44473 20.5553 3 20.0065 3Z" fill="#4267B2"/>
</svg>
