<svg width="24" height="24" viewBox="0 0 24 24" fill="none" xmlns="http://www.w3.org/2000/svg">
<path d="M8.66064 19.629C15.4531 19.629 19.1683 14.0014 19.1683 9.12128C19.1683 8.96144 19.1647 8.80232 19.1575 8.64392C19.8782 8.12264 20.5054 7.47248 21 6.7316C20.3383 7.02536 19.6262 7.22336 18.8789 7.31264C19.6414 6.85544 20.2267 6.13184 20.5025 5.27C19.789 5.69336 18.9984 6.0008 18.1574 6.1664C17.4842 5.44928 16.5245 5 15.4625 5C13.4227 5 11.7689 6.65384 11.7689 8.69288C11.7689 8.98304 11.8013 9.26456 11.8646 9.53456C8.796 9.38048 6.07368 7.91096 4.2528 5.67608C3.93528 6.22184 3.7524 6.85616 3.7524 7.53224C3.7524 8.81384 4.40472 9.94424 5.39544 10.6059C4.78992 10.5872 4.2204 10.4209 3.72288 10.1437C3.72216 10.1588 3.72216 10.1746 3.72216 10.1905C3.72216 11.979 4.99512 13.4722 6.68496 13.8106C6.37464 13.8949 6.04848 13.9402 5.71152 13.9402C5.47392 13.9402 5.24208 13.9165 5.01744 13.8733C5.4876 15.3406 6.85056 16.4084 8.46768 16.4379C7.20336 17.4286 5.61144 18.019 3.88128 18.019C3.5832 18.019 3.28944 18.0018 3 17.9679C4.6344 19.0177 6.5748 19.629 8.66064 19.629Z" fill="#1DA1F3"/>
</svg>
